<svg version="1.2" xmlns="http://www.w3.org/2000/svg" viewBox="0 0 1878 796" width="1878" height="796">
	<title>2-svg</title>
	<style>
		.s0 { fill: #ffffff } 
	</style>
	<path id="Layer" class="s0" d="m1881 62.5c0-22.2 0-46 0-70.7h-1884c0 24.7 0 48.5 0 70.7 0 11.5 0 22.3 0 32.2v0.4c0 14.2 8.8 27.1 22.1 31.9 15.4 5.4 27.5 16.9 33.9 33.7 5.4 14 8.4 29.1 17 41.3 17 24.1 48.7 22.5 70.8 5.6 12.1-9.3 17.8-24.4 24.9-38 10.4-20.1 27.5-17.2 43-8.5 17.2 14.7 23.1 36.4 27.7 57.6 7 31.6 7.6 62.7-0.1 94.2-5 20.6-10.6 40.7-14.6 61.6-3.9 19.9-4.3 46.4 9.2 62.4 5.9 6.9 15.4 11.5 25.4 13.4 3.1 0.6 6.2 1 9.3 1.1 4.7 0.1 9.4-0.3 13.6-1.4 30.8-7.9 26.9-47.6 23.5-71.7-5.1-36.5-11.4-69.1-7.9-106.4 3.3-35.6 27.4-63.1 65-58.1 2.8 0.4 5.5 0.9 8.1 1.5 19.5 5.6 33.3 16.9 46.5 30.1 17.3 21.9 25.9 51.7 28.4 79.3 7.6 81.3 4.4 178.5-3.5 270.2q-2.9 32.7-8.8 65c-3.7 20.8-10.7 41.8-11.2 62.9-1 37.3 26.3 67.8 59.7 65.9 8.6-0.4 17.6-3.1 26.6-8.3 24.2-14 26.6-41.4 23.4-66.6-3.1-24.5-9.1-48.3-12.3-72.9-7.2-55.9-10.4-112.4-11.9-168.8-1.1-44.6-1.1-89.2-0.2-133.7 0.5-24.2 3.1-52.2 15.5-73.6 1.8-3.1 4.2-6.3 7.1-9.5 12.7-10.5 26-21.4 39.7-23.5q1.7-0.3 3.4-0.4c7.1-0.3 14.3 1.9 21.5 7.9 8.8 7.3 9.1 20.2 11 31.3 2.6 15.7 11.8 32.4 27.4 35.3 11.6 2.2 22.7-4.1 30.4-13.4 2.8-3.4 5.1-7.2 6.9-11.1 17.8-40.2-14.6-120.9 54.7-122.3q1.1 0 2.2 0c19.6 1 38.6 11.9 47.4 29.4 21.9 44-0.3 94.2-0.3 139.9 0 17.9 4.7 36.8 17.4 49.5 8.2 8.2 19.4 13 30.8 13.8q1.4 0.1 2.9 0.1c5 0 10-0.6 14.8-2.2 14.9-4.7 27.1-17 31.6-32 8-26.6-3.4-57.7-6.5-84.3-3.6-30.2-5-60.6-4.3-90.9 0.3-8.8 2-17.5 5-25.8 3-7.8 9.4-14.8 18.5-14.2q0 0 0.3-0.1c6.6 0.2 14 2.3 22.8 5 31 9.4 61.5 3.7 85.7-18.7 14.6-13.4 28.9-27.8 46.5-37.3 13.1-7 29.5-12.5 43.1-11.3 7.3 1.3 42.1 17.3 39.2 207.3-14.3 180.1-62 381.1 9.1 384 75.9 3 30.2-252.9 22.6-430.6-1.4-62.9 5-175.6 67.4-193.2q0.7-0.1 1.3-0.3c42.1-2.6 48 66.6 45.9 97.2-1.2 16.6-3.5 35.6 15.5 43.2 2.5 1 5.2 1.6 8 1.7 4.8 0.2 9.7-0.8 13.9-3.2 3.5-2 6.4-4.7 9-7.8 2.3-2.7 4.3-5.8 5.5-9.1 5.5-14.5-5.1-29.5-0.8-43.7 2.9-9.8 11.3-21.3 20.5-25.8 4.3-2.1 8.8-3 13.4-3.5q0.3 0 0.5 0 2.9-0.1 5.7 0.3c5.7 1.2 11 3.8 16.3 6.8q1.1 0.6 2.1 1.3c6.1 5.1 10.6 12 13.6 19.3 18.1 43.2 15.8 128.9 11.3 174.8-4.2 41.9-37.3 80.5 2.3 114.6 4.7 4 9.6 6.2 14.5 7.1q0.7 0.1 1.5 0.2c19.9 2.2 39.1-18.5 41.9-39.1 2.1-16-7.6-38.1-10.6-53.6-9.7-51-3.2-131.8-3.9-183.6-0.3-25.1 4.8-48.3 24.7-65.3 3.9-3.3 7.8-5.6 11.8-7.1q0.4-0.2 0.9-0.3 0.4-0.2 0.8-0.3c18.4-5.6 34.6 7 42.2 23.1 6.6 14.3 11.4 29.4 14.3 44.9 2.1 11 3.2 22.5 7.8 32.8 4.6 10.3 13.7 19.5 24.9 20.4 29.8 2.5 24.7-31 40.3-46.8 5.5-5.5 13.9-8.9 21.3-6.3q2 0.7 3.7 1.9 1.8 1.3 3.4 2.9c0.6 0.7 1.2 1.5 1.9 2.2q1 1.4 2 2.9 0.7 0.9 1.3 1.9 0.9 1.6 1.8 3.2 1.5 2.7 2.8 5.5 0.5 1 0.9 1.9c1.3 2.6 2.4 5.1 3.5 7.2q0 0 0 0.1 0.6 1.2 1.2 2.4c1.6 3.3 2.9 6.8 4.2 10.3 4.5 12.3 7.1 25.7 8.9 38.2 4.4 31.7 4.8 60.8 4.5 92.6-1.4 156.3-18.5 168.2-20.5 225.1-0.2 5.2 0.1 10.8 0.8 16.5 3.5 25.8 16.8 52.7 41.2 54.5 1.1 0.1 2.3 0.1 3.4 0.1 6.5-0.1 13.7-2 21.6-6 16.3-8.2 23-27.9 25.2-50.2 2.8-29.6-2.2-63.8-3.4-82.6-4-66.4-19.3-263.8 42.3-317.7q1.4-1.3 3-2.5 1.5-1.2 3.1-2.3 0.5-0.3 0.9-0.6 1.2-0.9 2.5-1.7 0.4-0.3 0.9-0.5 3.3-2.1 6.6-3.9 0.5-0.3 1-0.5 1.3-0.7 2.6-1.3 0.5-0.2 1-0.5 3.4-1.6 6.9-3 0.7-0.3 1.3-0.5 1.1-0.5 2.2-0.9 0.6-0.2 1.2-0.4 3.5-1.3 7-2.4 0.5-0.1 1-0.2 1.3-0.4 2.6-0.8 0.5-0.1 1-0.3c8.7-2.4 17.1-3.9 24.5-4.9 15-2 26.2-14.8 26.2-30v-0.4c0-9.9 0-20.7 0-32.2z"/>
</svg>