<svg version="1.2" xmlns="http://www.w3.org/2000/svg" viewBox="0 0 1892 919" width="1892" height="919">
	<title>6-svg</title>
	<style>
		.s0 { fill: #ffffff } 
	</style>
	<path id="Layer" class="s0" d="m1892.4-11h-3.5-49.2-1806.4-24.8-5.1c-2.8 24.2 2.4 67.7 57.3 114.9q0.7 0.5 1.3 1.2h0.1q19.6 19.2 30.3 44.4c6 14.2 9.7 29 11.6 44.2 2.2 17.6 2.4 35.3 1.2 53-1.3 21.3-4 42.5-7.3 63.6-3.4 21.4-7 42.8-10.3 64.2-2.1 13.4-3.9 26.8-5.7 40.2-1.7 12.9-3.4 25.8-4.8 38.8-1.5 14.5-3 29-4.1 43.5-1 14.4-0.4 28.8 2.7 43 1.3 5.9 3.2 11.7 6.2 17 2.5 4.5 5.5 8.4 9.6 11.6 7.6 5.8 15.9 7.2 25.1 4.4 5.6-1.8 10.3-4.8 14.5-8.9 7.2-6.9 11.6-15.5 14.3-25 1.9-6.7 2.8-13.6 3-20.6 0.7-16.5 0.2-32.9-1.5-49.4-2.2-21-4.5-42.1-6.8-63.1-1.9-17.8-4-35.5-5.8-53.3-1.4-13.8-2.4-27.7-3.6-41.5-2-23.7-3.1-47.5-3.5-71.3-0.4-20.5 0.6-40.9 3.8-61.2 1.9-11.3 4.4-22.5 8.3-33.3 3.5-9.5 8.1-18.4 14.8-26.1 7.1-8.1 15.6-13.8 26.1-16.4q3.2-0.8 6.5-1.2h12.9q2.2 0.2 4.4 0.5c12.4 1.8 24.2 5.9 35.9 10.4 8.3 3.1 16.5 6.4 24.8 9.4 11.3 4.1 22.9 7 34.8 8.7 17.4 2.5 34.3 0.9 51-4.5 15.2-4.9 30.1-10.6 44.9-16.6 7.7-3.2 15.5-6.1 23.5-8.2 14.9-3.9 28.2-0.8 40.3 8.3 6.6 5 12.2 10.9 17.2 17.4q3.2 4.1 5.5 8.7 6.1 11.8 12.2 23.7c6.2 12.2 12.6 24.3 20 35.9 4.8 7.4 9.9 14.7 15.7 21.4 5.8 6.7 12.4 12.7 20 17.4 11.1 6.9 23.1 10.1 36.2 8.8 7-0.7 13.6-2.9 19.9-5.9 9.3-4.5 17.6-10.5 25.3-17.2 4.6-4 8.9-8.3 13.5-12.3q5.6-4.8 11.5-9c3.6-2.7 7.7-4.6 12-6.1 7.6-2.5 14.5-1.3 20.7 3.5 2.7 2.1 5.2 4.5 7.5 7.1 6.9 7.7 12.3 16.4 16.7 25.6 6.1 12.6 10.2 25.9 13.2 39.5 2.9 13.2 4.7 26.6 5.7 40.1 1.4 18.2 1.9 36.4 2 54.7 0.1 18.4 0.1 36.8 0.1 55.2 0 19.3-1.5 38.5-4.1 57.6-2.6 19.2-5.5 38.4-8.1 57.7-3.8 27.2-6.7 54.4-5.6 82 0.3 8.3 1.2 16.6 3.1 24.7 1.3 5.4 3.2 10.6 6.1 15.5 5.2 8.6 12.5 14.2 22.4 16.6 2.3 0.6 4.6 1.3 6.9 2h6.3c2.3-0.7 4.6-1.4 7-2 8.4-2.1 15.1-6.8 20.1-13.9 4.8-6.8 7.5-14.4 9.4-22.4 2.4-10.5 3.5-21.2 3.9-32 0.7-16-0.1-31.9-1.5-47.9q-1.7-18.6-3.6-37.3c-1-9.5-2.2-18.9-3.2-28.4-1.2-11.1-2.2-22.1-3.2-33.2-1.2-13-1.2-26-1-39 0.3-16.8 2.6-33.2 6-49.6 8.6-41.3 24.3-79.9 44.7-116.7 8.8-15.8 18.4-31 29.7-45.2 9.1-11.7 19.2-22.4 31-31.5 8.5-6.6 17.8-12 28-15.8 20.8-7.7 41.2-6.5 61.1 3.2 10.7 5.2 20.3 12 28.9 20.2 6.8 6.5 13.3 13.3 19.8 20 9.8 10.1 19.4 20.4 29.2 30.5q2.7 2.7 5.4 5.3c6.6 6.3 12.4 13.4 16.9 21.4 63.4 111.1 51.7 303.1 43.7 380.5-1.4 10.9-2.7 22.2-4 33.8-7.1 63.2-11.7 131.9-3.6 165.2 17.2 69.9 51.5 31.1 51.5 31.1 0 0 20.6-13 3.4-153-6.5-53.3-11.3-94.9-15.3-124.8-7.6-109.5 6.9-216.5 20.4-287.2 4.3-17.1 15-46.4 41.2-66.1q0-0.1 0.1-0.1c9.8-7.4 19.6-14.9 29.5-22.2 7.5-5.4 15.2-10.4 23.4-14.6 8.3-4.2 16.8-7.5 26-8.9 13.4-2.1 25.5 0.9 36.7 8.2 5.6 3.6 10.4 8.1 14.8 13.1 7.6 8.5 13.5 18.1 18.5 28.2 9.3 18.8 15.5 38.6 19.2 59.2 4.8 26.7 5.1 53.5 3.4 80.5-1.1 18.7-4 37.2-7.2 55.7-2.8 16.2-5.3 32.6-4.5 49.2 0.4 9.4 1.7 18.6 5 27.5 2 5.4 4.7 10.5 8.4 15 9.9 11.9 27 14.9 40.7 7.7 4.6-2.5 8.7-5.8 12.2-9.7 8.8-9.7 13.8-21.2 15.9-34 2-12.1 1.7-24.2 0.5-36.3-1.3-13-3-25.9-4.4-38.8q-0.8-7.5-1.1-15.1c-1-20.3-1.6-40.6-0.6-60.9 0.8-16.6 1.9-33.3 3.7-49.8 2.4-22 5.7-43.7 9.7-65.4 3.5-18.8 7.4-37.4 11.9-56 1.2-4.9 2.8-9.7 5-14.2 4.8-9.8 12.5-15.5 23.3-17.1 5-0.8 10-0.9 15.1-0.8 9.5 0.2 19.1 0.6 28.6 0 12.1-0.8 23.7-3.4 34.4-9.3 5.4-2.9 10.6-5.9 15.9-8.9 5.2-2.8 10.5-5.5 16.1-7.3q15.7-5.1 30.3 2.3c11.7 5.8 19.8 15.1 25.1 26.8 3.2 7 5.2 14.4 6.6 21.9 2.3 12.6 4 25.4 5.3 38.1 1.3 11.9 2.6 23.8 3.8 35.8q0.7 7.2 1.2 14.5c1.3 23.4 2.1 46.8 1.5 70.3-0.4 15.7-0.8 31.5-1.5 47.3-0.7 12.7-1.7 25.3-2.7 37.9q-1.1 14.8-2.4 29.6c-0.8 8.5-1.7 17-2.5 25.4-0.9 8.6-1.9 17.3-2.7 25.9-0.9 10.4-2 20.7-2.7 31.1-1.6 22.9-3 45.8-1.8 68.7 0.4 8.2 0.8 16.3 1.4 24.4 0.8 8.9 2.1 17.6 5.2 26 1.6 4.4 3.6 8.6 6.4 12.5 2.5 3.4 5.6 6.2 9.6 7.9 7.4 3.3 15.9 2.1 22.2-3.1 3.4-2.8 5.8-6.5 7.7-10.5 3.1-6.4 4.8-13.3 6.1-20.3 2.9-15.3 3.9-30.7 4.1-46.1 0.1-17.4-0.6-34.7-1.7-52.1-0.8-12.4-1.5-24.9-2.5-37.4-1.1-13.5-2.4-27-3.6-40.4-0.8-9.2-1.7-18.4-2.5-27.5q-1.4-17.2-2.7-34.3-0.7-9.3-1.2-18.7c-1.3-22.5-1.8-45.1-1.1-67.7q0-0.2 0-0.4c8.3-135.4 89-182.3 134.8-200.6 33.1-13.2 29.8-78.1 25.5-112.7z"/>
</svg>