<svg version="1.2" xmlns="http://www.w3.org/2000/svg" viewBox="0 0 1899 764" width="1899" height="764">
	<title>8-svg</title>
	<style>
		.s0 { fill: #ffffff } 
	</style>
	<path id="Layer" class="s0" d="m1709 299c0 0-35.4 89.7-14.2 154.8 21.2 65.2-72.8 83.2-72.8 83.2l30-208z"/>
	<path id="Layer" class="s0" d="m1692.1 354.3c13.9-56.5 53.3-170.8 146.7-188.9 52-18.2 64.6-88.6 67.2-134.2v-40.2h-170-116.8-1627.2v91.7c0 40.6 27.5 75.9 66.7 86.4q0.4 0.1 0.7 0.2c64.1 18.7 90.1 95.6 85 161-4.7 62.1-72.3 212.9 2.5 252.8 22.1 11.9 51.4 8.1 70.1-8.5 54.4-48.8 10.2-133.4-2.5-189.5-4.3-19.1-5.6-40.8-2.2-60.7 5.6-34 54-37 65.1-4.7 3.8 11.5 8 22.9 11.9 34 18.7 51 94.7 42.1 101.5-11.5 2.1-19.5 4.7-38.6 9.8-56.5 19.5-71.8 89.2-128.3 165.3-133.4 76-5.1 152.9 40.8 182.7 109.6 17.8 41.7 19.1 88 20.4 133 1.7 70.1-25.5 156.8-23.8 227.4 0.8 39.9 42.1 84.9 92.6 64.5 28.5-11.4 49.7-46.7 48.9-76.9-1.7-91.7-60.4-186.5-59.1-276.6 0.9-88.8 71.4-186.5 161.9-190.8 67.1-2.9 122.4 46.8 173.8 89.3 51 42.5 119.8 82.8 181.9 57.3 37.3-15.3 61.1-50.5 89.2-79 35.7-36.1 95.2-64.6 135.5-12.8 5.1 6.4 9 13.2 12.4 20.9 70.5 153.4-30.2 285.1-23.4 420.2 5.1 99 139.4 100.7 168.7 14.9 12.7-38.3 5.5-79.9-6.4-118.2-16-50.8-38.6-102.3-35.6-149.3 0 0 0 0 0-0.1 0.7-10.7 2.7-21.2 6.5-31.4z"/>
</svg>